PathFileType	4	(X/Y/Z)	C:\Users\Basilio\Documents\Thesis Gigler\squatting_fais\c3dfiles\041\SJ_pre1\markers_experimental.trc
DataRate	CameraRate	NumFrames	NumMarkers	Units	OrigDataRate	OrigDataStartFrame	OrigNumFrames
200.000000	200.000000	4	62	mm	200.000000	158	1270
Frame#	Time	FHD			LBHD			RBHD			C7			T10			CLAV			LSHO			LUUPA			LMUPA			LDUPA			LLEP			LMEP			LRAD			LUL			LRFIN			RSHO			RUPA1			RMUPA			RDUPA			RLEP			RMEP			RRAD			RUL			RUFIN			LASI			RASI			USACR			LSACR			RSACR			LTHI1			LTHI2			LTHI3			LTHI4			LLFC			LMFC			LTIB1			LTIB2			LTIB3			LTIB4			LLMAL			LMMAL			LHEE			LMT1			LMT2			LMT5			RTHI			RTHI2			RTHI3			RTHI4			RLFC			RMFC			RTIB1			RTIB2			RTIB3			RTIB4			RLMAL			RMMAL			RHEE			RMT1			RMT2			RMT5			*61			
		X1	Y1	Z1	X2	Y2	Z2	X3	Y3	Z3	X4	Y4	Z4	X5	Y5	Z5	X6	Y6	Z6	X7	Y7	Z7	X8	Y8	Z8	X9	Y9	Z9	X10	Y10	Z10	X11	Y11	Z11	X12	Y12	Z12	X13	Y13	Z13	X14	Y14	Z14	X15	Y15	Z15	X16	Y16	Z16	X17	Y17	Z17	X18	Y18	Z18	X19	Y19	Z19	X20	Y20	Z20	X21	Y21	Z21	X22	Y22	Z22	X23	Y23	Z23	X24	Y24	Z24	X25	Y25	Z25	X26	Y26	Z26	X27	Y27	Z27	X28	Y28	Z28	X29	Y29	Z29	X30	Y30	Z30	X31	Y31	Z31	X32	Y32	Z32	X33	Y33	Z33	X34	Y34	Z34	X35	Y35	Z35	X36	Y36	Z36	X37	Y37	Z37	X38	Y38	Z38	X39	Y39	Z39	X40	Y40	Z40	X41	Y41	Z41	X42	Y42	Z42	X43	Y43	Z43	X44	Y44	Z44	X45	Y45	Z45	X46	Y46	Z46	X47	Y47	Z47	X48	Y48	Z48	X49	Y49	Z49	X50	Y50	Z50	X51	Y51	Z51	X52	Y52	Z52	X53	Y53	Z53	X54	Y54	Z54	X55	Y55	Z55	X56	Y56	Z56	X57	Y57	Z57	X58	Y58	Z58	X59	Y59	Z59	X60	Y60	Z60	X61	Y61	Z61	X62	Y62	Z62	

159	0.79	-191.59521484375	1745.651000976563	-846.4795532226565	-353.1600036621094	1670.545654296875	-943.333679199219	-350.4064636230469	1668.454711914063	-789.8288574218752	-392.0498046875001	1525.865844726563	-885.1126098632815	-423.9034729003907	1208.79345703125	-892.7122802734377	-235.1004333496094	1461.14794921875	-874.1715087890627	-294.0055847167969	1521.047973632813	-1051.112548828125	-354.7923278808594	1395.533447265625	-1194.845703125	-337.8598022460938	1349.241943359375	-1194.3642578125	-380.9818420410157	1347.887084960938	-1237.98046875	-395.7071533203126	1302.871826171875	-1263.820678710938	-458.098114013672	1268.136840820313	-1205.650512695313	-333.6343688964844	1095.393188476563	-1102.72314453125	-319.4018249511719	1056.005249023438	-1165.001342773438	-285.9902648925782	1070.640014648438	-1066.35888671875	-311.1861572265626	1513.517211914063	-706.7660522460939	-413.4183349609376	1375.703979492188	-564.1964721679689	-372.9573669433594	1345.029418945313	-561.1677246093751	-408.7723083496095	1315.392700195313	-526.3148193359376	-411.023162841797	1266.837524414063	-509.4575805664064	-475.6739501953126	1246.54541015625	-574.7414550781251	-371.1880798339844	1072.60400390625	-676.8078613281251	-321.6125793457032	1060.843505859375	-713.2759399414064	-350.8962402343751	1029.214111328125	-616.9986572265626	-246.787582397461	1014.924072265625	-996.8123168945315	-264.6784362792969	1009.361999511719	-776.4995727539065	-433.1173095703126	1094.662353515625	-899.210632324219	-446.4453125000001	1069.105712890625	-927.2391357421877	-455.9394836425782	1069.594116210938	-873.5770263671877	-373.6644897460938	821.8563232421877	-1093.67529296875	-337.8520202636719	745.3950195312501	-1102.059936523438	-290.8001708984376	749.2753295898439	-1092.271728515625	-365.3543090820313	690.6116943359376	-1095.69287109375	-344.0718688964844	513.1289672851564	-1104.49462890625	-327.6181030273438	477.9806213378907	-991.1115722656252	-315.2376098632813	315.7552490234376	-1081.266845703125	-369.8742065429688	283.4578247070313	-1145.447265625	-331.4573364257813	275.5816955566407	-1123.469970703125	-332.1326599121094	193.5833129882813	-1103.090576171875	-398.5535888671876	101.7821502685547	-1150.15869140625	-350.2952575683594	103.5950012207032	-1072.484985351563	-450.6665039062501	53.3932456970215	-1109.904296875	-233.2525482177735	59.95243453979494	-1108.5166015625	-232.3843536376954	59.83126449584962	-1154.116577148438	-278.4363098144532	35.96090316772462	-1205.157348632813	-379.3932189941407	758.8218383789064	-698.5467529296876	-338.3855590820313	707.5217895507814	-688.9966430664064	-305.1268615722657	711.2672729492189	-691.1829833984376	-358.6089477539063	626.0938110351564	-701.3593139648439	-343.0443420410157	501.9449768066407	-690.3723144531251	-319.9883422851563	475.4367065429689	-805.1309814453127	-312.5549926757813	333.4097595214844	-685.3745727539064	-398.1571044921876	261.8003234863282	-667.3369140625001	-351.4706420898438	257.4970397949219	-666.2163696289064	-330.2016906738282	206.5570220947266	-690.1138305664064	-391.8378906250001	93.73210906982423	-670.0901489257814	-359.2788085937501	103.7186126708985	-748.4709472656251	-445.1737670898439	49.66612625122072	-720.1876831054689	-227.7048492431641	53.24659347534181	-714.8591308593751	-229.773666381836	57.85762405395509	-662.9023437500001	-275.0498962402344	37.98340225219727	-615.2517700195314	-4216.854980468751	853.1718750000002	-3944.683837890626	
160	0.795	-191.786376953125	1745.7294921875	-845.7927856445315	-353.3320922851563	1670.531616210938	-942.586608886719	-350.3959045410157	1668.4501953125	-789.068542480469	-391.9630737304689	1525.821166992188	-884.5252685546877	-423.7841186523439	1208.829345703125	-892.2006835937502	-235.1426544189454	1461.240844726563	-873.4365844726565	-293.7796630859376	1521.092895507813	-1050.479614257813	-354.6508178710938	1395.65869140625	-1194.152709960938	-337.2691040039063	1348.7763671875	-1193.7861328125	-381.0454406738282	1348.008178710938	-1237.333251953125	-395.6282348632814	1303.0048828125	-1263.246215820313	-458.0381774902345	1268.314208984375	-1204.962524414063	-332.9001159667969	1095.419555664063	-1102.501098632813	-319.3495483398438	1056.162719726563	-1164.525146484375	-285.8797302246094	1070.726806640625	-1065.891235351563	-311.1304626464844	1513.44775390625	-706.0824584960939	-413.2354736328126	1375.665771484375	-563.5936279296876	-372.6387634277344	1344.865112304688	-560.3795166015626	-408.6155090332032	1315.280639648438	-525.7464599609376	-410.9378051757814	1267.041870117188	-508.8783264160157	-475.647186279297	1246.369140625	-574.0416259765626	-371.1029663085938	1072.570678710938	-676.2626953125001	-321.6198425292969	1060.745239257813	-712.7976684570314	-350.9461669921876	1029.132934570313	-616.4875488281251	-246.9430694580079	1014.953430175781	-996.3560791015627	-264.7436523437501	1009.352844238281	-776.054626464844	-433.0689086914064	1094.708618164063	-898.7661132812502	-446.4445190429689	1069.140747070313	-926.875427246094	-455.6976928710939	1069.628295898438	-873.1177978515627	-373.3399658203126	821.8005371093752	-1093.305297851563	-337.5017395019532	745.3926391601564	-1101.794067382813	-290.3651428222657	749.2849121093751	-1091.992919921875	-364.9874267578126	690.7192993164064	-1095.353759765625	-343.3035888671876	513.1089477539064	-1104.332641601563	-327.1541137695313	477.9084777832032	-990.9667968750002	-314.9290771484376	315.8050842285157	-1081.130737304688	-369.5601501464844	283.5538940429688	-1145.462646484375	-330.9203491210938	275.3297119140626	-1123.485229492188	-331.8905944824219	193.5202789306641	-1103.037475585938	-398.3872985839845	101.8878784179688	-1150.19873046875	-350.2741394042969	103.6451263427735	-1072.459228515625	-450.5637817382814	53.47533798217775	-1109.886474609375	-233.0083312988282	60.3201141357422	-1108.342407226563	-232.3658447265626	59.74910736083986	-1154.120849609375	-278.4281005859376	36.02318191528321	-1205.137573242188	-379.2487487792969	758.8308105468751	-698.2852783203126	-338.3391723632813	707.4866333007814	-688.7265625000001	-305.1201171875001	711.2405395507814	-690.9104614257814	-358.6076049804688	626.1264038085939	-701.0729370117189	-342.9934997558594	501.9512023925782	-690.1682739257814	-319.5471801757813	475.3476562500001	-805.1994628906252	-312.4840087890626	333.4402160644532	-685.2521362304689	-398.1568298339845	261.7956542968751	-667.1680908203126	-351.4443054199219	257.4484252929688	-666.1203613281251	-330.1829528808594	206.5685119628907	-690.1532592773439	-391.7967529296876	93.71072387695314	-669.9406738281251	-359.3148803710938	103.7268905639649	-748.4147949218751	-445.1635742187501	49.63026046752931	-720.0863647460939	-227.6637115478516	53.24099349975587	-714.8337402343751	-229.5012512207032	57.72567367553712	-662.8379516601564	-275.0581359863282	37.96013641357423	-615.2486572265626	-4216.933593750001	853.2105712890627	-3944.632812500001	
161	0.8	-191.893783569336	1745.772705078125	-844.983825683594	-353.4687500000001	1670.47119140625	-941.8570556640627	-350.3078918457032	1668.407104492188	-788.313171386719	-391.8506774902345	1525.798461914063	-883.7854003906252	-423.6622619628907	1208.78076171875	-891.6679687500002	-234.9694213867188	1461.177124023438	-872.8174438476565	-293.6203308105469	1521.142700195313	-1049.811157226563	-354.4978332519532	1395.844970703125	-1193.617431640625	-337.2963867187501	1348.9248046875	-1193.18212890625	-381.0743713378907	1348.166870117188	-1236.64599609375	-395.4871215820314	1303.28662109375	-1262.775146484375	-458.0077209472657	1268.442260742188	-1204.3623046875	-332.9156188964844	1095.417724609375	-1102.052368164063	-319.4137573242188	1056.274169921875	-1164.115966796875	-286.0280456542969	1070.754272460938	-1065.371826171875	-311.0493774414063	1513.364990234375	-705.4078369140626	-413.0487670898439	1375.591796875	-562.9207763671876	-372.5639038085938	1344.804321289063	-559.9088134765626	-408.5839233398439	1315.210083007813	-524.9993286132814	-410.8203430175782	1266.8486328125	-508.1102294921876	-475.5380249023439	1246.37548828125	-573.3604736328126	-371.1036987304688	1072.587036132813	-675.6608886718751	-321.7467956542969	1060.751586914063	-712.2449340820314	-351.0144042968751	1029.074340820313	-615.9972534179689	-246.8888092041016	1014.974182128906	-995.9417114257815	-264.7041320800782	1009.350769042969	-775.688659667969	-433.0159912109376	1094.77001953125	-898.419616699219	-446.1654052734376	1069.0302734375	-926.416198730469	-455.5777893066407	1069.632568359375	-872.850280761719	-372.9656982421876	821.775329589844	-1092.97265625	-337.1341857910157	745.3861083984376	-1101.522583007813	-289.8346862792969	749.2545166015626	-1091.724853515625	-364.5034790039063	690.7136840820314	-1095.122802734375	-342.4430541992188	513.1200561523439	-1104.184326171875	-326.6221008300782	477.8502197265626	-990.9285888671877	-314.4320983886719	315.8247070312501	-1080.941772460938	-368.7938232421876	283.7007446289063	-1145.398315429688	-330.0821228027344	275.3375549316407	-1123.4599609375	-331.6089782714844	193.5715484619141	-1102.991943359375	-398.2573852539064	102.0339965820313	-1150.25341796875	-350.2367858886719	103.7092666625977	-1072.4453125	-450.5672607421876	53.53269958496095	-1109.840942382813	-232.9858398437501	60.29287338256837	-1108.345947265625	-232.2088928222657	59.72156524658205	-1154.111938476563	-278.4283752441407	36.03083419799805	-1205.130615234375	-379.1803894042969	758.8605346679689	-698.0186767578126	-338.2956542968751	707.4571533203126	-688.3969116210939	-305.1721191406251	711.3090820312501	-690.6322631835939	-358.6122131347657	626.1525878906251	-700.7907714843751	-342.9781494140626	501.9299926757814	-689.9429321289064	-319.6069335937501	475.3628234863282	-804.9831542968752	-312.4913940429688	333.3905639648438	-685.1277465820314	-398.1553649902345	261.7124938964844	-666.9961547851564	-351.4175109863282	257.4555358886719	-666.0156860351564	-330.1239013671876	206.4940490722657	-690.0437011718751	-391.8428039550782	93.72652435302736	-669.8150024414064	-359.3843383789063	103.7708740234375	-748.3292846679689	-445.1578674316407	49.59811401367189	-720.0464477539064	-227.6870574951172	53.22534179687501	-714.8453979492189	-229.8085327148438	57.85239028930665	-662.8694458007814	-275.0525207519532	37.92451477050782	-615.2093505859376	-4216.478515625001	853.1746826171877	-3945.062011718751	
162	0.805	-191.9676361083985	1746.086059570313	-844.539733886719	-353.6889343261719	1670.481811523438	-941.0554809570315	-350.2139892578126	1668.430419921875	-787.5972290039065	-391.8172912597657	1525.788330078125	-883.0398559570315	-423.6498413085939	1208.863647460938	-891.1461181640627	-234.8987884521485	1461.129516601563	-872.3135986328127	-293.5890502929688	1521.22705078125	-1049.1484375	-354.6926879882813	1396.089599609375	-1192.930541992188	-337.5811462402344	1349.29443359375	-1192.646850585938	-380.8875122070313	1348.742553710938	-1236.015258789063	-395.3756713867189	1303.50146484375	-1262.169677734375	-457.9923095703126	1268.579956054688	-1203.823486328125	-332.7961730957032	1095.47998046875	-1101.609985351563	-319.8003540039063	1056.585205078125	-1163.758666992188	-286.1385803222657	1070.79931640625	-1064.930053710938	-310.9731140136719	1513.280639648438	-704.8137207031251	-412.8513488769532	1375.476318359375	-562.2304077148439	-372.3115539550782	1344.640258789063	-559.2993164062501	-408.4412841796876	1315.111694335938	-524.3386840820314	-410.7375488281251	1266.692504882813	-507.4746704101564	-475.438446044922	1246.325439453125	-572.7919311523439	-371.1999816894532	1072.529907226563	-675.1221313476564	-322.1296691894532	1060.848266601563	-711.7025146484376	-350.9812316894532	1028.999389648438	-615.6157836914064	-246.8739624023438	1014.842651367188	-995.5781250000002	-264.8244628906251	1009.219177246094	-775.1450805664065	-433.0596313476564	1094.83642578125	-898.0462646484377	-446.091766357422	1069.10400390625	-926.041442871094	-455.5829162597657	1069.648559570313	-872.4938964843752	-372.7102966308594	821.665466308594	-1092.674926757813	-336.6198120117188	745.4353637695314	-1101.165649414063	-289.3683471679688	749.2975463867189	-1091.435546875	-364.0953979492188	690.9043579101564	-1094.832153320313	-341.5690002441407	513.2151489257814	-1104.044677734375	-325.6575927734376	477.7121887207032	-990.9450683593752	-313.8884582519532	315.6816406250001	-1080.809448242188	-368.1722717285157	283.8147277832032	-1145.344360351563	-329.5610351562501	275.2636413574219	-1123.47314453125	-331.3474731445313	193.5969238281251	-1102.853149414063	-398.1110229492189	102.1642150878907	-1150.359497070313	-350.1453552246094	103.7291870117188	-1072.413452148438	-450.4749145507814	53.60695648193361	-1109.781616210938	-233.2183227539063	59.892635345459	-1108.528564453125	-232.1445007324219	59.80530166625978	-1154.15087890625	-278.4631652832032	36.05242156982423	-1205.062866210938	-379.1986694335938	758.8392944335939	-697.6517944335939	-338.2378845214844	707.4898071289064	-688.0683593750001	-305.1072692871094	711.3026733398439	-690.4326171875001	-358.5698547363282	626.1681518554689	-700.4396972656251	-342.9220886230469	501.8842773437501	-689.7852172851564	-319.8187866210938	475.386444091797	-804.7864379882815	-312.4728393554688	333.4162292480469	-685.0258178710939	-398.1756286621095	261.6362304687501	-666.8170776367189	-351.4429321289063	257.3903503417969	-665.8717041015626	-330.1416320800782	206.4644470214844	-689.9340209960939	-391.8594970703126	93.66078948974611	-669.6909790039064	-359.4488525390626	103.777572631836	-748.2744750976564	-445.2000427246095	49.61598205566408	-720.0383300781251	-227.6593933105469	53.20997238159181	-714.8312377929689	-229.8466186523438	57.8715057373047	-662.8510131835939	-275.0550537109376	37.92914962768555	-615.1931762695314	-4217.313476562501	853.2203369140627	-3944.715332031251	
